<?xml version="1.0" encoding="utf-8" ?><svg xmlns="http://www.w3.org/2000/svg" xmlns:xlink="http://www.w3.org/1999/xlink" width="505" height="553" viewBox="0 0 505 553"><clipPath id="cl_3"><rect y="-3.0517578e-05" width="505" height="553"/></clipPath><g clip-path="url(#cl_3)"><path fill="#38C6D8" transform="translate(-253 -230)" d="M510.65 259.202C518.959 258.76 526.768 260.876 534.015 264.829C545.513 271.102 556.931 277.961 568.297 284.502L644.438 328.808L688.289 354.244C696.82 359.197 705.253 364.009 713.387 369.533C721.008 374.709 723.917 388.73 717.037 395.143C706.734 404.747 691.271 412.447 678.987 419.62L599.294 466.517L561.545 488.584C552.099 494.129 542.455 499.583 533.25 505.518C507.03 522.422 512.015 553.417 512.038 580.755L512.017 685.303L512.129 718.396C512.203 735.52 514.958 753.086 494.286 759.011C488.875 759.874 482.866 758.756 478.037 756.204C465.195 749.418 452.568 741.514 440.103 734.066L370.685 692.634L325.812 665.957C307.937 655.38 285.404 645.179 283.437 621.087C282.306 607.236 282.946 592.123 282.964 578.138L282.976 499.42L282.919 438.171C282.895 427.782 282.528 415.406 283.436 405.325C284.086 398.114 288.671 388.428 293.351 383.024C296.346 379.566 299.318 376.49 303.291 373.971C317.485 364.969 332.265 356.573 346.835 348.203L406.579 313.516L460.513 282.23C475.605 273.462 493.314 260.87 510.65 259.202Z"/>
<path fill="#68DEE3" transform="translate(-253 -230)" d="M717.033 428.639C727.306 425.122 733.841 427.232 739.259 436.853C740.623 442.886 740.068 461.414 740.043 468.436L740.03 522.13L740.05 586.683C740.056 597.893 740.441 609.214 739.808 620.398C738.49 643.681 721.887 651.826 704.364 662.391L668.168 683.749L572.553 740.213C563.984 745.389 552.098 751.149 543.604 742.634C535.971 734.981 537.991 716.378 537.934 706.021C538.615 697.362 538.01 676.173 538.001 666.61L537.955 586.498C537.956 575.668 537.374 556.171 538.814 546.089C541.473 536.982 545.724 529.524 553.369 523.699C555.495 522.079 557.957 520.916 560.094 519.293C564.233 517.326 570.83 513.211 574.89 510.828L600.014 496.109L680.342 449.39C690.504 443.477 707.058 433.117 717.033 428.639Z"/></g></svg>